<?xml version="1.0" standalone="no"?>
<!DOCTYPE svg PUBLIC "-//W3C//DTD SVG 20010904//EN"
 "http://www.w3.org/TR/2001/REC-SVG-20010904/DTD/svg10.dtd">
<svg version="1.0" xmlns="http://www.w3.org/2000/svg"
 width="500.000000pt" height="500.000000pt" viewBox="0 0 500.000000 500.000000"
 preserveAspectRatio="xMidYMid meet">
<metadata>
Created by potrace 1.11, written by Peter Selinger 2001-2013
</metadata>
<g transform="translate(0.000000,500.000000) scale(0.100000,-0.100000)"
fill="#000000" stroke="none">
<path d="M2390 4895 c-58 -57 -109 -109 -115 -114 -170 -173 -474 -474 -485
-481 -8 -5 -12 -10 -9 -10 4 0 -34 -41 -83 -90 -100 -100 -118 -137 -94 -195
13 -30 59 -84 74 -86 43 -7 71 -8 91 -4 13 4 175 158 378 361 l355 355 348
-350 c191 -192 357 -354 368 -360 27 -14 78 -14 105 0 36 19 76 70 83 104 3
17 0 46 -8 63 -11 29 -882 913 -897 912 -3 -1 -53 -48 -111 -105z"/>
<path d="M2349 4056 c-2 -2 -19 -6 -38 -9 -57 -9 -127 -65 -158 -127 l-28 -55
-1 -395 c-1 -217 -2 -397 -3 -400 0 -2 -167 162 -371 365 -203 203 -378 373
-387 377 -87 34 -189 -46 -180 -141 5 -43 15 -54 376 -415 204 -204 371 -373
371 -376 0 -3 -172 -5 -382 -5 -355 1 -445 -4 -473 -27 -61 -48 -77 -63 -94
-92 -11 -18 -22 -41 -24 -52 -1 -10 -5 -23 -8 -29 -3 -5 -4 -16 -3 -22 1 -7 2
-19 3 -26 1 -10 148 -12 718 -12 l718 0 1 705 c0 388 -3 713 -8 723 -8 16 -20
22 -29 13z"/>
<path d="M2645 4050 c-27 -5 -30 -9 -30 -42 0 -21 4 -38 8 -38 5 0 5 -6 0 -12
-10 -17 -10 -148 0 -148 5 0 5 -6 0 -12 -10 -17 -10 -148 0 -148 5 0 5 -6 0
-12 -10 -17 -10 -148 0 -148 5 0 5 -6 0 -12 -10 -17 -10 -148 0 -148 5 0 5 -6
0 -12 -10 -17 -10 -148 0 -148 5 0 5 -6 0 -12 -10 -17 -10 -148 0 -148 5 0 5
-6 0 -12 -10 -17 -10 -148 0 -148 5 0 5 -6 0 -12 -10 -18 -10 -148 1 -148 5 0
4 -6 -2 -13 -6 -7 -9 -22 -7 -32 2 -11 4 -22 4 -25 1 -3 324 -5 719 -5 l717 0
-2 40 c-2 58 -25 105 -75 151 -40 37 -61 51 -98 61 -8 3 -188 6 -400 8 -212 1
-391 3 -398 4 -7 0 152 166 354 369 206 206 373 381 380 399 36 84 -68 192
-163 168 -19 -4 -153 -131 -399 -377 l-372 -371 -3 52 c-2 28 -1 51 3 51 4 0
5 6 2 14 -8 21 -10 106 -2 106 4 0 5 6 2 14 -8 20 -10 106 -3 106 4 0 3 17 -1
38 -3 20 -3 49 1 65 4 15 4 27 1 27 -4 0 -6 73 -6 163 1 150 0 165 -21 207
-13 25 -36 58 -51 74 -33 32 -101 69 -113 61 -5 -3 -11 -2 -13 3 -1 4 -17 5
-33 2z"/>
<path d="M922 3403 c-18 -4 -239 -206 -306 -280 -12 -15 -399 -402 -419 -420
-6 -6 -54 -54 -106 -107 l-93 -96 63 -66 c231 -239 823 -821 846 -831 33 -15
85 -9 118 13 54 35 81 116 54 166 -6 11 -168 176 -360 368 l-350 348 350 351
c192 192 355 359 360 370 31 58 -10 147 -80 175 -22 9 -43 15 -47 15 -4 -1
-17 -4 -30 -6z"/>
<path d="M4025 3400 c-11 -4 -29 -10 -40 -14 -52 -20 -90 -121 -62 -168 6 -12
169 -179 361 -370 l349 -349 -339 -338 c-186 -186 -348 -348 -358 -360 -10
-11 -20 -40 -22 -63 -6 -82 76 -158 154 -143 27 5 57 27 115 83 163 158 817
816 817 822 0 14 -882 886 -907 897 -32 14 -40 14 -68 3z"/>
<path d="M952 2375 c-10 -15 -10 -45 0 -45 5 0 6 -5 2 -11 -8 -13 25 -89 39
-89 6 0 8 -3 4 -6 -8 -8 50 -57 93 -79 28 -15 120 -28 178 -26 6 1 32 1 57 1
25 0 52 0 60 0 8 0 35 0 60 0 25 0 51 0 58 -1 6 0 45 1 85 3 39 2 72 -1 72 -5
0 -5 4 -5 10 -2 8 5 167 9 245 6 13 -1 -94 -114 -350 -371 -203 -203 -373
-378 -377 -387 -18 -47 -8 -90 30 -132 39 -44 85 -60 135 -47 14 3 182 163
395 376 204 203 372 370 374 370 2 0 3 -179 3 -397 0 -299 3 -403 12 -421 7
-13 13 -29 13 -34 0 -17 74 -89 110 -108 38 -19 95 -31 114 -24 9 3 11 183 11
722 l0 717 -713 0 c-471 0 -716 -3 -720 -10z"/>
<path d="M2621 2382 c-6 -2 -7 -12 -1 -26 4 -12 5 -28 1 -34 -4 -7 -5 -58 -3
-114 2 -57 3 -110 2 -118 -1 -25 -2 -183 -1 -215 0 -16 0 -70 0 -120 -1 -49
-1 -103 0 -120 0 -16 0 -70 0 -120 -1 -49 -1 -103 0 -120 0 -16 0 -70 0 -120
-1 -49 -1 -103 0 -120 1 -16 0 -69 -1 -117 -3 -85 -2 -87 21 -91 28 -6 121 21
121 35 0 4 5 8 10 8 6 0 24 13 40 30 16 16 27 30 24 30 -3 0 4 14 16 30 12 17
18 30 14 30 -3 0 -2 6 3 13 6 6 11 44 11 82 0 39 2 72 3 75 1 3 1 9 0 14 -4
22 -4 136 0 141 3 2 2 29 -1 59 -3 30 -3 63 1 73 3 10 4 22 1 28 -8 12 -5 102
3 115 3 6 3 10 -2 10 -7 0 -9 64 -3 80 2 3 1 10 0 15 -2 10 -3 78 -1 105 1 8
171 -155 379 -363 382 -381 384 -383 447 -377 29 2 81 40 99 71 18 30 21 76 7
111 -5 13 -174 187 -375 388 -201 201 -366 367 -366 370 0 3 17 4 37 4 21 -1
58 -3 83 -4 25 -1 50 -1 55 0 12 2 129 1 141 -1 5 -1 11 -1 14 0 3 1 68 2 145
1 172 -1 165 -1 220 1 25 1 48 -1 51 -4 18 -17 143 48 187 98 35 40 65 137 49
161 -5 7 -234 10 -714 10 -388 0 -711 -2 -717 -4z"/>
<path d="M1694 1078 c-3 -5 -9 -6 -13 -4 -12 8 -62 -44 -77 -79 -13 -32 -11
-74 5 -103 11 -19 883 -892 891 -892 4 0 205 198 446 439 469 469 481 485 455
548 -17 41 -51 77 -86 91 -33 13 -85 13 -85 -1 0 -4 -4 -6 -9 -3 -5 3 -169
-155 -364 -351 l-356 -356 -351 351 c-192 193 -359 356 -370 362 -22 12 -79
10 -86 -2z"/>
</g>
</svg>
